<svg xmlns="http://www.w3.org/2000/svg" width="32" height="32" viewBox="0 0 32 32"><g transform="scale(0.680851)" stroke="#d9a827" fill="none" stroke-linecap="round" stroke-linejoin="round"><path d="M23.5 38.4811C31.774 38.4811 38.4813 31.7737 38.4813 23.4998C38.4813 15.2259 31.774 8.51855 23.5 8.51855C15.2261 8.51855 8.5188 15.2259 8.5188 23.4998C8.5188 31.7737 15.2261 38.4811 23.5 38.4811Z" stroke-width="2.35"/><path d="M23.5 25.9967C24.879 25.9967 25.9969 24.8788 25.9969 23.4998C25.9969 22.1208 24.879 21.0029 23.5 21.0029C22.1211 21.0029 21.0032 22.1208 21.0032 23.4998C21.0032 24.8788 22.1211 25.9967 23.5 25.9967Z" stroke-width="2.35"/><path d="M23.4656 18.9313C25.6558 18.9313 27.4313 17.1558 27.4313 14.9656C27.4313 12.7755 25.6558 11 23.4656 11C21.2755 11 19.5 12.7755 19.5 14.9656C19.5 17.1558 21.2755 18.9313 23.4656 18.9313Z" stroke-width="2.35"/><path d="M15.9656 31.9312C18.1558 31.9312 19.9312 30.1558 19.9312 27.9656C19.9312 25.7755 18.1558 24 15.9656 24C13.7755 24 12 25.7755 12 27.9656C12 30.1558 13.7755 31.9312 15.9656 31.9312Z" stroke-width="2.35"/><path d="M30.9656 31.9312C33.1558 31.9312 34.9313 30.1558 34.9313 27.9656C34.9313 25.7755 33.1558 24 30.9656 24C28.7755 24 27 25.7755 27 27.9656C27 30.1558 28.7755 31.9312 30.9656 31.9312Z" stroke-width="2.35"/></g></svg>
